<svg width="726" height="130" viewBox="0 0 726 130" fill="none" xmlns="http://www.w3.org/2000/svg">
<path d="M66.1216 13.542H39.542V68H27.4814V13.542H0.855469V1.48145H66.1216V13.542Z" fill="white"/>
<path d="M137.975 68H125.914V51.6719H83.5166V68H71.4561V34.7407C71.4561 29.8856 72.291 25.417 73.9609 21.335C75.6309 17.2529 77.9502 13.743 80.9189 10.8052C83.8877 7.86735 87.3976 5.57894 91.4487 3.93994C95.4998 2.30094 99.922 1.48145 104.715 1.48145H131.898C132.733 1.48145 133.521 1.63607 134.264 1.94531C135.006 2.25456 135.655 2.6875 136.212 3.24414C136.769 3.80078 137.201 4.4502 137.511 5.19238C137.82 5.93457 137.975 6.72314 137.975 7.55811V68ZM83.5166 39.6113H125.914V13.542H104.715C104.344 13.542 103.556 13.6038 102.35 13.7275C101.174 13.8203 99.7983 14.0832 98.2212 14.5161C96.675 14.9491 95.036 15.6139 93.3042 16.5107C91.5724 17.4076 89.9798 18.6445 88.5264 20.2217C87.0729 21.7988 85.8669 23.778 84.9082 26.1592C83.9805 28.5094 83.5166 31.37 83.5166 34.7407V39.6113Z" fill="white"/>
<path d="M217.203 61.9233C217.203 62.7892 217.049 63.5933 216.739 64.3354C216.43 65.0776 215.997 65.7271 215.44 66.2837C214.884 66.8094 214.234 67.2269 213.492 67.5361C212.75 67.8454 211.961 68 211.126 68H183.944C181.377 68 178.779 67.7217 176.151 67.165C173.522 66.6084 170.971 65.758 168.497 64.6138C166.054 63.4386 163.75 61.9543 161.585 60.1606C159.421 58.367 157.519 56.2487 155.88 53.8057C154.272 51.3317 153.004 48.5176 152.076 45.3633C151.148 42.1781 150.685 38.6372 150.685 34.7407V1.48145H162.745V34.7407C162.745 38.1424 163.209 41.0184 164.137 43.3687C165.095 45.7189 166.301 47.6826 167.755 49.2598C169.208 50.8369 170.801 52.0739 172.533 52.9707C174.264 53.8675 175.903 54.5324 177.45 54.9653C179.027 55.3983 180.403 55.6766 181.578 55.8003C182.784 55.8931 183.573 55.9395 183.944 55.9395H205.143V1.48145H217.203V61.9233Z" fill="white"/>
<path d="M286.273 40.8174H248.143V28.6641H286.273V40.8174ZM291.654 13.542H243.319V68H231.258V7.55811C231.258 6.72314 231.413 5.93457 231.722 5.19238C232.031 4.4502 232.449 3.80078 232.975 3.24414C233.531 2.6875 234.181 2.25456 234.923 1.94531C235.665 1.63607 236.469 1.48145 237.335 1.48145H291.654V13.542Z" fill="white"/>
<path d="M313.548 68H301.488V1.48145H313.548V68Z" fill="white"/>
<path d="M397.462 41.0957C397.462 44.1882 397.044 47.1105 396.209 49.8628C395.405 52.5841 394.246 55.0581 392.73 57.2847C391.246 59.5112 389.437 61.4595 387.303 63.1294C385.2 64.7993 382.85 66.1136 380.252 67.0723L394.354 78.2515H376.866L365.27 68.9277H353.395C349.405 68.9277 345.71 68.2474 342.308 66.8867C338.906 65.4951 335.969 63.5623 333.495 61.0884C331.021 58.6144 329.072 55.6766 327.65 52.2749C326.258 48.8732 325.562 45.1468 325.562 41.0957V28.3857C325.562 24.3656 326.258 20.6546 327.65 17.2529C329.072 13.8203 331.021 10.8825 333.495 8.43945C335.969 5.96549 338.906 4.03271 342.308 2.64111C345.71 1.24951 349.405 0.553711 353.395 0.553711H369.723C373.712 0.553711 377.392 1.24951 380.763 2.64111C384.164 4.03271 387.102 5.96549 389.576 8.43945C392.05 10.8825 393.983 13.8203 395.375 17.2529C396.766 20.6546 397.462 24.3656 397.462 28.3857V41.0957ZM385.401 28.3857C385.401 26.0046 385.015 23.8553 384.242 21.938C383.5 19.9897 382.433 18.3353 381.041 16.9746C379.68 15.583 378.026 14.5161 376.078 13.7739C374.16 13.0008 372.042 12.6143 369.723 12.6143H353.395C351.044 12.6143 348.895 13.0008 346.947 13.7739C345.029 14.5161 343.375 15.583 341.983 16.9746C340.592 18.3353 339.509 19.9897 338.736 21.938C337.994 23.8553 337.623 26.0046 337.623 28.3857V41.0957C337.623 43.4769 337.994 45.6416 338.736 47.5898C339.509 49.5072 340.592 51.1616 341.983 52.5532C343.375 53.9139 345.029 54.9808 346.947 55.7539C348.895 56.4961 351.044 56.8672 353.395 56.8672H369.63C371.98 56.8672 374.114 56.4961 376.031 55.7539C377.979 54.9808 379.649 53.9139 381.041 52.5532C382.433 51.1616 383.5 49.5072 384.242 47.5898C385.015 45.6416 385.401 43.4769 385.401 41.0957V28.3857Z" fill="white"/>
<path d="M504.198 48.4248C504.198 50.806 503.889 52.9552 503.27 54.8726C502.682 56.759 501.894 58.4289 500.904 59.8823C499.915 61.3358 498.755 62.5728 497.425 63.5933C496.096 64.6138 494.719 65.4487 493.297 66.0981C491.874 66.7476 490.421 67.2269 488.937 67.5361C487.483 67.8454 486.107 68 484.808 68H438.282V55.9395H484.808C487.127 55.9395 488.921 55.2591 490.189 53.8984C491.488 52.5378 492.137 50.7132 492.137 48.4248C492.137 47.3115 491.967 46.291 491.627 45.3633C491.287 44.4355 490.792 43.6315 490.143 42.9512C489.524 42.2708 488.751 41.7451 487.823 41.374C486.926 41.0029 485.921 40.8174 484.808 40.8174H457.069C455.121 40.8174 453.018 40.4772 450.76 39.7969C448.503 39.0856 446.4 37.9569 444.452 36.4106C442.534 34.8644 440.926 32.8389 439.627 30.334C438.36 27.8291 437.726 24.7676 437.726 21.1494C437.726 17.5312 438.36 14.4852 439.627 12.0112C440.926 9.50635 442.534 7.48079 444.452 5.93457C446.4 4.35742 448.503 3.22868 450.76 2.54834C453.018 1.83708 455.121 1.48145 457.069 1.48145H498.121V13.542H457.069C454.78 13.542 452.987 14.2378 451.688 15.6294C450.42 17.021 449.786 18.861 449.786 21.1494C449.786 23.4688 450.42 25.3088 451.688 26.6694C452.987 27.9992 454.78 28.6641 457.069 28.6641H484.901C486.2 28.695 487.576 28.8805 489.029 29.2207C490.483 29.5299 491.921 30.0247 493.343 30.7051C494.797 31.3854 496.173 32.2513 497.472 33.3027C498.771 34.3232 499.915 35.5602 500.904 37.0137C501.925 38.4671 502.729 40.137 503.316 42.0234C503.904 43.9098 504.198 46.0436 504.198 48.4248Z" fill="white"/>
<path d="M576.932 23.7471C576.932 26.4993 576.576 28.9578 575.865 31.1226C575.185 33.2873 574.273 35.2046 573.128 36.8745C571.984 38.5135 570.639 39.9206 569.093 41.0957C567.577 42.2708 566 43.245 564.361 44.0181C562.722 44.7603 561.052 45.3014 559.352 45.6416C557.682 45.9818 556.104 46.1519 554.62 46.1519H549.75V68H537.596V46.1519H532.772C531.288 46.1519 529.695 45.9818 527.994 45.6416C526.324 45.3014 524.654 44.7603 522.984 44.0181C521.345 43.245 519.768 42.2708 518.253 41.0957C516.738 39.9206 515.392 38.5135 514.217 36.8745C513.073 35.2046 512.145 33.2873 511.434 31.1226C510.754 28.9269 510.414 26.4684 510.414 23.7471V1.48145H522.474V23.7471C522.474 25.3242 522.722 26.7467 523.216 28.0146C523.711 29.2516 524.407 30.3185 525.304 31.2153C526.201 32.1121 527.283 32.8079 528.551 33.3027C529.85 33.7666 531.288 33.9985 532.865 33.9985H554.62C555.764 33.813 556.939 33.5811 558.146 33.3027C559.352 32.9935 560.449 32.4832 561.439 31.772C562.429 31.0607 563.248 30.0711 563.897 28.8032C564.547 27.5353 564.872 25.8499 564.872 23.7471V1.48145H576.932V23.7471Z" fill="white"/>
<path d="M642.477 40.8174H604.393V28.6641H642.477V40.8174ZM647.904 68H604.393C602.723 68 600.899 67.7062 598.919 67.1187C596.94 66.5311 595.1 65.5724 593.399 64.2427C591.729 62.882 590.322 61.1348 589.178 59.001C588.065 56.8363 587.508 54.1922 587.508 51.0688V7.55811C587.508 6.72314 587.663 5.93457 587.972 5.19238C588.281 4.4502 588.699 3.80078 589.225 3.24414C589.781 2.6875 590.431 2.25456 591.173 1.94531C591.915 1.63607 592.719 1.48145 593.585 1.48145H647.904V13.542H599.569V51.0688C599.569 52.646 599.986 53.8521 600.821 54.687C601.656 55.522 602.878 55.9395 604.486 55.9395H647.904V68Z" fill="white"/>
<path d="M725.973 40.168C725.973 44.2191 725.261 47.9455 723.839 51.3472C722.447 54.7489 720.514 57.6867 718.041 60.1606C715.567 62.6037 712.629 64.521 709.227 65.9126C705.825 67.3042 702.13 68 698.141 68H665.577C664.711 68 663.907 67.8454 663.165 67.5361C662.423 67.2269 661.773 66.8094 661.217 66.2837C660.691 65.7271 660.274 65.0776 659.964 64.3354C659.655 63.5933 659.5 62.7892 659.5 61.9233V7.55811C659.5 6.72314 659.655 5.93457 659.964 5.19238C660.274 4.4502 660.691 3.80078 661.217 3.24414C661.773 2.6875 662.423 2.25456 663.165 1.94531C663.907 1.63607 664.711 1.48145 665.577 1.48145H698.141C702.13 1.48145 705.825 2.17725 709.227 3.56885C712.629 4.96045 715.567 6.89323 718.041 9.36719C720.514 11.8102 722.447 14.748 723.839 18.1807C725.261 21.5824 725.973 25.2933 725.973 29.3135V40.168ZM713.912 29.3135C713.912 26.9632 713.526 24.814 712.752 22.8657C712.01 20.9175 710.943 19.263 709.552 17.9023C708.16 16.5107 706.49 15.4438 704.542 14.7017C702.625 13.9285 700.491 13.542 698.141 13.542H671.561V55.9395H698.141C700.491 55.9395 702.625 55.5684 704.542 54.8262C706.49 54.0531 708.16 52.9862 709.552 51.6255C710.943 50.2339 712.01 48.5794 712.752 46.6621C713.526 44.7139 713.912 42.5492 713.912 40.168V29.3135Z" fill="white"/>
<path d="M24.3623 119.705H15.5322V116.891H24.3623V119.705ZM25.6084 113.389H14.415V126H11.6221V112.003C11.6221 111.81 11.6579 111.627 11.7295 111.455C11.8011 111.283 11.8978 111.133 12.0195 111.004C12.1484 110.875 12.2988 110.775 12.4707 110.703C12.6426 110.632 12.8288 110.596 13.0293 110.596H25.6084V113.389Z" fill="white"/>
<path d="M40.0974 124.593C40.0974 124.793 40.0616 124.979 39.99 125.151C39.9184 125.323 39.8181 125.474 39.6892 125.603C39.5675 125.724 39.4207 125.821 39.2488 125.893C39.0841 125.964 38.905 126 38.7117 126H32.3953C32.0515 126 31.6827 125.961 31.2888 125.882C30.9021 125.803 30.519 125.678 30.1394 125.506C29.7598 125.327 29.391 125.105 29.033 124.84C28.682 124.568 28.3741 124.242 28.1091 123.862C27.8442 123.476 27.6293 123.032 27.4646 122.53C27.307 122.029 27.2283 121.463 27.2283 120.833V114.388H30.0212V120.833C30.0212 121.198 30.0821 121.528 30.2039 121.821C30.3328 122.108 30.5046 122.355 30.7195 122.562C30.9343 122.77 31.185 122.931 31.4714 123.046C31.7651 123.153 32.0802 123.207 32.4167 123.207H37.3044V114.388H40.0974V124.593Z" fill="white"/>
<path d="M47.8188 126H46.5727C46.1717 126 45.742 125.932 45.2837 125.796C44.8325 125.66 44.41 125.438 44.0161 125.13C43.6222 124.815 43.2964 124.41 43.0386 123.916C42.7808 123.415 42.6518 122.802 42.6518 122.079V109.479H45.4448V122.079C45.4448 122.423 45.5522 122.699 45.7671 122.906C45.9819 123.107 46.2505 123.207 46.5727 123.207H47.8188V126Z" fill="white"/>
<path d="M54.7131 126H53.467C53.066 126 52.6363 125.932 52.178 125.796C51.7268 125.66 51.3043 125.438 50.9104 125.13C50.5165 124.815 50.1907 124.41 49.9329 123.916C49.675 123.415 49.5461 122.802 49.5461 122.079V109.479H52.3391V122.079C52.3391 122.423 52.4465 122.699 52.6614 122.906C52.8762 123.107 53.1448 123.207 53.467 123.207H54.7131V126Z" fill="white"/>
<path d="M66.2588 119.555H56.1826V117.041H66.2588V119.555Z" fill="white"/>
<path d="M83.9275 121.467C83.9275 122.018 83.8559 122.516 83.7126 122.96C83.5766 123.397 83.3939 123.784 83.1648 124.12C82.9356 124.457 82.6671 124.743 82.3591 124.979C82.0512 125.216 81.7325 125.409 81.4031 125.56C81.0736 125.71 80.737 125.821 80.3933 125.893C80.0567 125.964 79.738 126 79.4372 126H68.6628V123.207H79.4372C79.9743 123.207 80.3897 123.049 80.6833 122.734C80.9841 122.419 81.1345 121.997 81.1345 121.467C81.1345 121.209 81.0951 120.973 81.0163 120.758C80.9376 120.543 80.823 120.357 80.6726 120.199C80.5294 120.042 80.3503 119.92 80.1355 119.834C79.9278 119.748 79.6951 119.705 79.4372 119.705H73.0134C72.5622 119.705 72.0753 119.626 71.5525 119.469C71.0297 119.304 70.5427 119.043 70.0915 118.685C69.6475 118.326 69.2751 117.857 68.9743 117.277C68.6807 116.697 68.5339 115.988 68.5339 115.15C68.5339 114.312 68.6807 113.607 68.9743 113.034C69.2751 112.454 69.6475 111.985 70.0915 111.627C70.5427 111.262 71.0297 111 71.5525 110.843C72.0753 110.678 72.5622 110.596 73.0134 110.596H82.5202V113.389H73.0134C72.4835 113.389 72.0681 113.55 71.7673 113.872C71.4737 114.194 71.3269 114.62 71.3269 115.15C71.3269 115.688 71.4737 116.114 71.7673 116.429C72.0681 116.737 72.4835 116.891 73.0134 116.891H79.4587C79.7595 116.898 80.0782 116.941 80.4148 117.02C80.7514 117.091 81.0844 117.206 81.4138 117.363C81.7504 117.521 82.0691 117.721 82.3699 117.965C82.6706 118.201 82.9356 118.488 83.1648 118.824C83.4011 119.161 83.5873 119.548 83.7234 119.984C83.8594 120.421 83.9275 120.915 83.9275 121.467Z" fill="white"/>
<path d="M95.9995 117.181H91.1225V126H88.2973V117.181H84.6665V114.388H88.2973V110.596H91.1225V114.388H95.9995V117.181Z" fill="white"/>
<path d="M109.156 122.154C109.156 122.541 109.088 122.96 108.952 123.411C108.816 123.855 108.594 124.271 108.286 124.657C107.986 125.037 107.588 125.355 107.094 125.613C106.607 125.871 106.013 126 105.311 126H100.273C99.886 126 99.467 125.932 99.0158 125.796C98.5718 125.66 98.1565 125.441 97.7698 125.141C97.3902 124.833 97.0715 124.435 96.8137 123.948C96.5559 123.454 96.427 122.856 96.427 122.154C96.427 121.768 96.495 121.349 96.6311 120.897C96.7671 120.446 96.9856 120.031 97.2864 119.651C97.5943 119.265 97.9918 118.942 98.4787 118.685C98.9729 118.427 99.5709 118.298 100.273 118.298H105.311V120.962H100.273C99.8931 120.962 99.5995 121.08 99.3918 121.316C99.1841 121.546 99.0803 121.832 99.0803 122.176C99.0803 122.541 99.1985 122.827 99.4348 123.035C99.6783 123.236 99.9647 123.336 100.294 123.336H105.311C105.69 123.336 105.984 123.221 106.192 122.992C106.399 122.763 106.503 122.477 106.503 122.133V118.233C106.503 117.868 106.389 117.578 106.159 117.363C105.937 117.148 105.655 117.041 105.311 117.041H99.177V114.388H105.311C105.697 114.388 106.113 114.456 106.557 114.592C107.008 114.728 107.423 114.95 107.803 115.258C108.19 115.559 108.512 115.956 108.77 116.45C109.028 116.937 109.156 117.532 109.156 118.233V122.154Z" fill="white"/>
<path d="M122.786 126H115.213C114.826 126 114.404 125.932 113.945 125.796C113.487 125.66 113.061 125.438 112.667 125.13C112.28 124.815 111.954 124.41 111.689 123.916C111.432 123.415 111.303 122.802 111.303 122.079V118.298C111.303 118.033 111.331 117.754 111.389 117.46C111.453 117.166 111.55 116.876 111.679 116.59C111.808 116.296 111.972 116.017 112.173 115.752C112.381 115.487 112.628 115.254 112.914 115.054C113.208 114.853 113.544 114.692 113.924 114.57C114.303 114.449 114.733 114.388 115.213 114.388H122.786V117.181H115.213C114.848 117.181 114.568 117.274 114.375 117.46C114.189 117.646 114.096 117.933 114.096 118.319V122.079C114.096 122.444 114.192 122.724 114.386 122.917C114.579 123.11 114.862 123.207 115.234 123.207H122.786V126Z" fill="white"/>
<path d="M138.736 126H134.708L129.079 120.564C128.764 120.278 128.617 119.92 128.638 119.49C128.653 119.29 128.703 119.104 128.789 118.932C128.882 118.753 129.007 118.602 129.165 118.48L134.267 114.366H138.736L132.162 119.662L138.736 126ZM127.929 126H125.136V109.479H127.929V126Z" fill="white"/>
<path d="M163.138 119.555C163.138 120.493 162.973 121.356 162.644 122.144C162.322 122.931 161.874 123.612 161.301 124.185C160.728 124.75 160.048 125.194 159.26 125.517C158.472 125.839 157.616 126 156.693 126H149.152C148.951 126 148.765 125.964 148.593 125.893C148.421 125.821 148.271 125.724 148.142 125.603C148.02 125.474 147.923 125.323 147.852 125.151C147.78 124.979 147.744 124.793 147.744 124.593V112.003C147.744 111.81 147.78 111.627 147.852 111.455C147.923 111.283 148.02 111.133 148.142 111.004C148.271 110.875 148.421 110.775 148.593 110.703C148.765 110.632 148.951 110.596 149.152 110.596H156.693C157.616 110.596 158.472 110.757 159.26 111.079C160.048 111.401 160.728 111.849 161.301 112.422C161.874 112.988 162.322 113.668 162.644 114.463C162.973 115.251 163.138 116.11 163.138 117.041V119.555ZM160.345 117.041C160.345 116.497 160.255 115.999 160.076 115.548C159.905 115.097 159.657 114.714 159.335 114.398C159.013 114.076 158.626 113.829 158.175 113.657C157.731 113.478 157.237 113.389 156.693 113.389H150.537V123.207H156.693C157.237 123.207 157.731 123.121 158.175 122.949C158.626 122.77 159.013 122.523 159.335 122.208C159.657 121.886 159.905 121.503 160.076 121.059C160.255 120.607 160.345 120.106 160.345 119.555V117.041Z" fill="white"/>
<path d="M178.057 118.233C178.057 118.62 177.989 119.039 177.853 119.49C177.716 119.934 177.494 120.35 177.186 120.736C176.886 121.116 176.488 121.435 175.994 121.692C175.507 121.95 174.913 122.079 174.211 122.079H169.173V119.426H174.211C174.59 119.426 174.884 119.311 175.092 119.082C175.299 118.846 175.403 118.556 175.403 118.212C175.403 117.847 175.285 117.56 175.049 117.353C174.82 117.145 174.54 117.041 174.211 117.041H169.173C168.793 117.041 168.5 117.159 168.292 117.396C168.084 117.625 167.98 117.911 167.98 118.255V122.154C167.98 122.527 168.095 122.817 168.324 123.024C168.561 123.232 168.851 123.336 169.194 123.336H174.211V126H169.173C168.786 126 168.367 125.932 167.916 125.796C167.472 125.66 167.057 125.441 166.67 125.141C166.29 124.833 165.972 124.435 165.714 123.948C165.456 123.454 165.327 122.856 165.327 122.154V118.233C165.327 117.847 165.395 117.431 165.531 116.987C165.667 116.536 165.886 116.121 166.186 115.741C166.494 115.354 166.892 115.032 167.379 114.774C167.873 114.517 168.471 114.388 169.173 114.388H174.211C174.598 114.388 175.013 114.456 175.457 114.592C175.908 114.728 176.324 114.95 176.703 115.258C177.09 115.559 177.412 115.956 177.67 116.45C177.928 116.937 178.057 117.532 178.057 118.233Z" fill="white"/>
<path d="M193.792 114.388C193.477 115.369 193.108 116.336 192.685 117.288C192.263 118.241 191.776 119.15 191.224 120.017C190.68 120.876 190.068 121.674 189.387 122.412C188.714 123.143 187.966 123.776 187.142 124.313C186.326 124.843 185.434 125.262 184.467 125.57C183.508 125.871 182.466 126.021 181.342 126.021C181.148 126.021 180.966 125.986 180.794 125.914C180.622 125.842 180.471 125.746 180.342 125.624C180.214 125.495 180.113 125.348 180.042 125.184C179.97 125.012 179.934 124.829 179.934 124.636V114.388H182.727V123.121C183.408 123.121 184.059 122.974 184.682 122.681C185.313 122.387 185.907 122 186.466 121.521C187.024 121.034 187.54 120.482 188.012 119.866C188.492 119.25 188.918 118.62 189.291 117.976C189.663 117.324 189.978 116.687 190.236 116.063C190.501 115.44 190.698 114.882 190.827 114.388H193.792Z" fill="white"/>
<path d="M207.292 118.233C207.292 118.62 207.224 119.039 207.088 119.49C206.952 119.934 206.73 120.35 206.422 120.736C206.122 121.116 205.724 121.435 205.23 121.692C204.743 121.95 204.149 122.079 203.447 122.079H198.409V119.426H203.447C203.826 119.426 204.12 119.311 204.328 119.082C204.535 118.846 204.639 118.556 204.639 118.212C204.639 117.847 204.521 117.56 204.285 117.353C204.055 117.145 203.776 117.041 203.447 117.041H198.409C198.029 117.041 197.735 117.159 197.528 117.396C197.32 117.625 197.216 117.911 197.216 118.255V122.154C197.216 122.527 197.331 122.817 197.56 123.024C197.796 123.232 198.086 123.336 198.43 123.336H203.447V126H198.409C198.022 126 197.603 125.932 197.152 125.796C196.708 125.66 196.292 125.441 195.906 125.141C195.526 124.833 195.207 124.435 194.95 123.948C194.692 123.454 194.563 122.856 194.563 122.154V118.233C194.563 117.847 194.631 117.431 194.767 116.987C194.903 116.536 195.122 116.121 195.422 115.741C195.73 115.354 196.128 115.032 196.615 114.774C197.109 114.517 197.707 114.388 198.409 114.388H203.447C203.833 114.388 204.249 114.456 204.693 114.592C205.144 114.728 205.559 114.95 205.939 115.258C206.326 115.559 206.648 115.956 206.906 116.45C207.164 116.937 207.292 117.532 207.292 118.233Z" fill="white"/>
<path d="M214.273 126H213.027C212.626 126 212.196 125.932 211.738 125.796C211.286 125.66 210.864 125.438 210.47 125.13C210.076 124.815 209.75 124.41 209.492 123.916C209.235 123.415 209.106 122.802 209.106 122.079V109.479H211.899V122.079C211.899 122.423 212.006 122.699 212.221 122.906C212.436 123.107 212.704 123.207 213.027 123.207H214.273V126Z" fill="white"/>
<path d="M228.697 122.079C228.697 122.559 228.636 122.992 228.515 123.379C228.393 123.758 228.232 124.095 228.031 124.389C227.831 124.675 227.598 124.922 227.333 125.13C227.068 125.33 226.789 125.495 226.495 125.624C226.209 125.753 225.915 125.85 225.614 125.914C225.321 125.971 225.041 126 224.776 126H219.738C219.352 126 218.929 125.932 218.471 125.796C218.012 125.66 217.586 125.438 217.192 125.13C216.806 124.815 216.48 124.41 216.215 123.916C215.957 123.415 215.828 122.802 215.828 122.079V118.298C215.828 117.582 215.957 116.977 216.215 116.482C216.48 115.981 216.806 115.576 217.192 115.269C217.586 114.953 218.012 114.728 218.471 114.592C218.929 114.456 219.352 114.388 219.738 114.388H224.776C225.492 114.388 226.101 114.517 226.602 114.774C227.104 115.032 227.508 115.358 227.816 115.752C228.124 116.139 228.346 116.561 228.482 117.02C228.626 117.478 228.697 117.904 228.697 118.298V122.079ZM225.904 118.319C225.904 117.933 225.808 117.646 225.614 117.46C225.421 117.274 225.142 117.181 224.776 117.181H219.76C219.387 117.181 219.104 117.277 218.911 117.471C218.718 117.657 218.621 117.933 218.621 118.298V122.079C218.621 122.444 218.718 122.724 218.911 122.917C219.104 123.11 219.387 123.207 219.76 123.207H224.776C225.156 123.207 225.439 123.11 225.625 122.917C225.811 122.724 225.904 122.444 225.904 122.079V118.319Z" fill="white"/>
<path d="M243.884 122.079C243.884 122.559 243.824 122.992 243.702 123.379C243.58 123.758 243.419 124.095 243.218 124.389C243.018 124.675 242.785 124.922 242.52 125.13C242.255 125.33 241.976 125.495 241.682 125.624C241.396 125.753 241.106 125.85 240.812 125.914C240.519 125.971 240.239 126 239.974 126H234.936V123.207H239.974C240.347 123.207 240.626 123.11 240.812 122.917C240.998 122.724 241.092 122.444 241.092 122.079V118.319C241.092 117.933 240.995 117.646 240.801 117.46C240.615 117.274 240.34 117.181 239.974 117.181H234.958C234.578 117.181 234.292 117.277 234.098 117.471C233.905 117.657 233.808 117.933 233.808 118.298V129.631H231.015V118.298C231.015 117.818 231.076 117.388 231.198 117.009C231.32 116.629 231.481 116.296 231.681 116.01C231.889 115.716 232.125 115.469 232.39 115.269C232.655 115.061 232.931 114.893 233.217 114.764C233.511 114.635 233.805 114.542 234.098 114.484C234.399 114.42 234.678 114.388 234.936 114.388H239.974C240.454 114.388 240.884 114.449 241.263 114.57C241.643 114.692 241.976 114.853 242.262 115.054C242.556 115.254 242.803 115.487 243.004 115.752C243.211 116.017 243.38 116.296 243.508 116.59C243.637 116.876 243.731 117.166 243.788 117.46C243.852 117.754 243.884 118.033 243.884 118.298V122.079Z" fill="white"/>
<path d="M258.76 118.233C258.76 118.62 258.692 119.039 258.556 119.49C258.42 119.934 258.198 120.35 257.89 120.736C257.589 121.116 257.192 121.435 256.698 121.692C256.211 121.95 255.616 122.079 254.915 122.079H249.876V119.426H254.915C255.294 119.426 255.588 119.311 255.795 119.082C256.003 118.846 256.107 118.556 256.107 118.212C256.107 117.847 255.989 117.56 255.752 117.353C255.523 117.145 255.244 117.041 254.915 117.041H249.876C249.497 117.041 249.203 117.159 248.996 117.396C248.788 117.625 248.684 117.911 248.684 118.255V122.154C248.684 122.527 248.799 122.817 249.028 123.024C249.264 123.232 249.554 123.336 249.898 123.336H254.915V126H249.876C249.49 126 249.071 125.932 248.62 125.796C248.176 125.66 247.76 125.441 247.373 125.141C246.994 124.833 246.675 124.435 246.417 123.948C246.16 123.454 246.031 122.856 246.031 122.154V118.233C246.031 117.847 246.099 117.431 246.235 116.987C246.371 116.536 246.589 116.121 246.89 115.741C247.198 115.354 247.595 115.032 248.082 114.774C248.577 114.517 249.175 114.388 249.876 114.388H254.915C255.301 114.388 255.717 114.456 256.161 114.592C256.612 114.728 257.027 114.95 257.407 115.258C257.793 115.559 258.116 115.956 258.373 116.45C258.631 116.937 258.76 117.532 258.76 118.233Z" fill="white"/>
<path d="M270.8 117.181H264.516C264.136 117.181 263.85 117.277 263.656 117.471C263.463 117.657 263.366 117.933 263.366 118.298V126H260.573V118.298C260.573 117.818 260.634 117.388 260.756 117.009C260.878 116.629 261.039 116.296 261.239 116.01C261.447 115.716 261.683 115.469 261.948 115.269C262.213 115.061 262.489 114.893 262.776 114.764C263.069 114.635 263.363 114.542 263.656 114.484C263.957 114.42 264.237 114.388 264.494 114.388H270.8V117.181Z" fill="white"/>
<path d="M284.137 118.169C284.137 118.47 284.08 118.753 283.966 119.018C283.851 119.283 283.693 119.512 283.493 119.705C283.299 119.898 283.07 120.052 282.805 120.167C282.548 120.274 282.272 120.328 281.978 120.328C281.677 120.328 281.395 120.274 281.13 120.167C280.872 120.052 280.646 119.898 280.453 119.705C280.259 119.512 280.105 119.283 279.991 119.018C279.883 118.753 279.83 118.47 279.83 118.169C279.83 117.882 279.883 117.61 279.991 117.353C280.105 117.095 280.259 116.869 280.453 116.676C280.646 116.475 280.872 116.318 281.13 116.203C281.395 116.089 281.677 116.031 281.978 116.031C282.272 116.031 282.548 116.089 282.805 116.203C283.07 116.318 283.299 116.475 283.493 116.676C283.693 116.869 283.851 117.095 283.966 117.353C284.08 117.61 284.137 117.882 284.137 118.169Z" fill="white"/>
<path d="M309.828 115.773C309.828 116.411 309.75 116.98 309.592 117.481C309.434 117.983 309.22 118.427 308.947 118.813C308.682 119.193 308.375 119.519 308.024 119.791C307.673 120.063 307.304 120.289 306.917 120.468C306.538 120.64 306.151 120.765 305.757 120.844C305.37 120.923 305.005 120.962 304.661 120.962L310.494 126H306.176L300.354 120.962H298.345V118.169H304.661C305.012 118.14 305.331 118.069 305.617 117.954C305.911 117.832 306.162 117.671 306.369 117.471C306.584 117.27 306.749 117.03 306.863 116.751C306.978 116.465 307.035 116.139 307.035 115.773V114.012C307.035 113.854 307.014 113.736 306.971 113.657C306.935 113.571 306.885 113.51 306.82 113.475C306.763 113.432 306.699 113.407 306.627 113.399C306.563 113.392 306.502 113.389 306.445 113.389H297.228V126H294.435V112.003C294.435 111.81 294.471 111.627 294.542 111.455C294.614 111.283 294.71 111.133 294.832 111.004C294.961 110.875 295.112 110.775 295.283 110.703C295.455 110.632 295.641 110.596 295.842 110.596H306.445C307.068 110.596 307.594 110.71 308.024 110.939C308.453 111.161 308.801 111.444 309.066 111.788C309.338 112.125 309.531 112.49 309.646 112.884C309.767 113.278 309.828 113.646 309.828 113.99V115.773Z" fill="white"/>
<path d="M324.683 118.233C324.683 118.62 324.615 119.039 324.478 119.49C324.342 119.934 324.12 120.35 323.812 120.736C323.512 121.116 323.114 121.435 322.62 121.692C322.133 121.95 321.539 122.079 320.837 122.079H315.799V119.426H320.837C321.216 119.426 321.51 119.311 321.718 119.082C321.925 118.846 322.029 118.556 322.029 118.212C322.029 117.847 321.911 117.56 321.675 117.353C321.446 117.145 321.166 117.041 320.837 117.041H315.799C315.419 117.041 315.126 117.159 314.918 117.396C314.71 117.625 314.606 117.911 314.606 118.255V122.154C314.606 122.527 314.721 122.817 314.95 123.024C315.186 123.232 315.477 123.336 315.82 123.336H320.837V126H315.799C315.412 126 314.993 125.932 314.542 125.796C314.098 125.66 313.683 125.441 313.296 125.141C312.916 124.833 312.598 124.435 312.34 123.948C312.082 123.454 311.953 122.856 311.953 122.154V118.233C311.953 117.847 312.021 117.431 312.157 116.987C312.293 116.536 312.512 116.121 312.812 115.741C313.12 115.354 313.518 115.032 314.005 114.774C314.499 114.517 315.097 114.388 315.799 114.388H320.837C321.224 114.388 321.639 114.456 322.083 114.592C322.534 114.728 322.949 114.95 323.329 115.258C323.716 115.559 324.038 115.956 324.296 116.45C324.554 116.937 324.683 117.532 324.683 118.233Z" fill="white"/>
<path d="M337.786 122.079C337.786 122.559 337.725 122.992 337.603 123.379C337.481 123.758 337.32 124.095 337.12 124.389C336.919 124.675 336.687 124.922 336.422 125.13C336.157 125.33 335.877 125.495 335.584 125.624C335.297 125.753 335.004 125.85 334.703 125.914C334.409 125.971 334.13 126 333.865 126H326.302V123.207H333.843C334.223 123.207 334.509 123.11 334.703 122.917C334.896 122.724 334.993 122.444 334.993 122.079C334.957 121.334 334.581 120.962 333.865 120.962H329.536C328.92 120.962 328.397 120.854 327.967 120.64C327.538 120.425 327.187 120.156 326.915 119.834C326.65 119.512 326.456 119.164 326.335 118.792C326.22 118.42 326.163 118.072 326.163 117.75C326.163 117.127 326.274 116.604 326.496 116.182C326.718 115.752 326.997 115.405 327.334 115.14C327.67 114.875 328.036 114.685 328.429 114.57C328.823 114.449 329.192 114.388 329.536 114.388H336.4V117.181H329.557C329.414 117.181 329.299 117.199 329.214 117.234C329.135 117.263 329.074 117.306 329.031 117.363C328.995 117.413 328.974 117.471 328.966 117.535C328.959 117.592 328.956 117.65 328.956 117.707C328.963 117.822 328.984 117.911 329.02 117.976C329.056 118.04 329.099 118.087 329.149 118.115C329.206 118.144 329.267 118.162 329.332 118.169C329.403 118.169 329.471 118.169 329.536 118.169H333.865C334.581 118.169 335.19 118.298 335.691 118.556C336.192 118.813 336.597 119.139 336.905 119.533C337.213 119.92 337.435 120.342 337.571 120.801C337.714 121.259 337.786 121.685 337.786 122.079Z" fill="white"/>
<path d="M352.243 118.233C352.243 118.62 352.175 119.039 352.039 119.49C351.902 119.934 351.68 120.35 351.372 120.736C351.072 121.116 350.674 121.435 350.18 121.692C349.693 121.95 349.099 122.079 348.397 122.079H343.359V119.426H348.397C348.776 119.426 349.07 119.311 349.278 119.082C349.485 118.846 349.589 118.556 349.589 118.212C349.589 117.847 349.471 117.56 349.235 117.353C349.006 117.145 348.726 117.041 348.397 117.041H343.359C342.979 117.041 342.686 117.159 342.478 117.396C342.27 117.625 342.166 117.911 342.166 118.255V122.154C342.166 122.527 342.281 122.817 342.51 123.024C342.747 123.232 343.037 123.336 343.38 123.336H348.397V126H343.359C342.972 126 342.553 125.932 342.102 125.796C341.658 125.66 341.243 125.441 340.856 125.141C340.476 124.833 340.158 124.435 339.9 123.948C339.642 123.454 339.513 122.856 339.513 122.154V118.233C339.513 117.847 339.581 117.431 339.717 116.987C339.853 116.536 340.072 116.121 340.372 115.741C340.68 115.354 341.078 115.032 341.565 114.774C342.059 114.517 342.657 114.388 343.359 114.388H348.397C348.784 114.388 349.199 114.456 349.643 114.592C350.094 114.728 350.51 114.95 350.889 115.258C351.276 115.559 351.598 115.956 351.856 116.45C352.114 116.937 352.243 117.532 352.243 118.233Z" fill="white"/>
<path d="M366.023 122.154C366.023 122.541 365.955 122.96 365.819 123.411C365.682 123.855 365.46 124.271 365.153 124.657C364.852 125.037 364.454 125.355 363.96 125.613C363.473 125.871 362.879 126 362.177 126H357.139C356.752 126 356.333 125.932 355.882 125.796C355.438 125.66 355.023 125.441 354.636 125.141C354.256 124.833 353.938 124.435 353.68 123.948C353.422 123.454 353.293 122.856 353.293 122.154C353.293 121.768 353.361 121.349 353.497 120.897C353.633 120.446 353.852 120.031 354.153 119.651C354.46 119.265 354.858 118.942 355.345 118.685C355.839 118.427 356.437 118.298 357.139 118.298H362.177V120.962H357.139C356.759 120.962 356.466 121.08 356.258 121.316C356.05 121.546 355.946 121.832 355.946 122.176C355.946 122.541 356.065 122.827 356.301 123.035C356.544 123.236 356.831 123.336 357.16 123.336H362.177C362.556 123.336 362.85 123.221 363.058 122.992C363.265 122.763 363.369 122.477 363.369 122.133V118.233C363.369 117.868 363.255 117.578 363.026 117.363C362.804 117.148 362.521 117.041 362.177 117.041H356.043V114.388H362.177C362.564 114.388 362.979 114.456 363.423 114.592C363.874 114.728 364.29 114.95 364.669 115.258C365.056 115.559 365.378 115.956 365.636 116.45C365.894 116.937 366.023 117.532 366.023 118.233V122.154Z" fill="white"/>
<path d="M378.567 117.181H372.283C371.904 117.181 371.617 117.277 371.424 117.471C371.23 117.657 371.134 117.933 371.134 118.298V126H368.341V118.298C368.341 117.818 368.402 117.388 368.523 117.009C368.645 116.629 368.806 116.296 369.007 116.01C369.214 115.716 369.451 115.469 369.716 115.269C369.981 115.061 370.256 114.893 370.543 114.764C370.836 114.635 371.13 114.542 371.424 114.484C371.725 114.42 372.004 114.388 372.262 114.388H378.567V117.181Z" fill="white"/>
<path d="M391.617 126H384.044C383.657 126 383.234 125.932 382.776 125.796C382.318 125.66 381.892 125.438 381.498 125.13C381.111 124.815 380.785 124.41 380.52 123.916C380.262 123.415 380.133 122.802 380.133 122.079V118.298C380.133 118.033 380.162 117.754 380.219 117.46C380.284 117.166 380.381 116.876 380.509 116.59C380.638 116.296 380.803 116.017 381.004 115.752C381.211 115.487 381.458 115.254 381.745 115.054C382.038 114.853 382.375 114.692 382.755 114.57C383.134 114.449 383.564 114.388 384.044 114.388H391.617V117.181H384.044C383.678 117.181 383.399 117.274 383.206 117.46C383.02 117.646 382.926 117.933 382.926 118.319V122.079C382.926 122.444 383.023 122.724 383.216 122.917C383.41 123.11 383.693 123.207 384.065 123.207H391.617V126Z" fill="white"/>
<path d="M406.836 126H404.043V118.298C404.043 117.933 403.95 117.657 403.764 117.471C403.578 117.277 403.299 117.181 402.926 117.181H397.888V114.388H402.926C403.191 114.388 403.47 114.42 403.764 114.484C404.058 114.542 404.348 114.635 404.634 114.764C404.928 114.893 405.207 115.061 405.472 115.269C405.737 115.469 405.97 115.716 406.17 116.01C406.371 116.296 406.532 116.629 406.654 117.009C406.775 117.388 406.836 117.818 406.836 118.298V126ZM396.76 126H393.967V109.479H396.76V126Z" fill="white"/>
<path d="M431.969 126H429.176V122.219H419.357V126H416.564V118.298C416.564 117.174 416.758 116.139 417.144 115.193C417.531 114.248 418.068 113.435 418.756 112.755C419.443 112.075 420.256 111.545 421.194 111.165C422.132 110.785 423.156 110.596 424.267 110.596H430.561C430.755 110.596 430.937 110.632 431.109 110.703C431.281 110.775 431.432 110.875 431.56 111.004C431.689 111.133 431.79 111.283 431.861 111.455C431.933 111.627 431.969 111.81 431.969 112.003V126ZM419.357 119.426H429.176V113.389H424.267C424.181 113.389 423.998 113.403 423.719 113.432C423.447 113.453 423.128 113.514 422.763 113.614C422.405 113.715 422.025 113.868 421.624 114.076C421.223 114.284 420.854 114.57 420.517 114.936C420.181 115.301 419.902 115.759 419.68 116.311C419.465 116.855 419.357 117.517 419.357 118.298V119.426Z" fill="white"/>
<path d="M446.135 122.079C446.135 122.559 446.075 122.992 445.953 123.379C445.831 123.758 445.67 124.095 445.469 124.389C445.269 124.675 445.036 124.922 444.771 125.13C444.506 125.33 444.227 125.495 443.933 125.624C443.647 125.753 443.353 125.85 443.052 125.914C442.759 125.971 442.479 126 442.215 126H434.652V123.207H442.193C442.573 123.207 442.859 123.11 443.052 122.917C443.246 122.724 443.342 122.444 443.342 122.079C443.307 121.334 442.931 120.962 442.215 120.962H437.885C437.27 120.962 436.747 120.854 436.317 120.64C435.887 120.425 435.536 120.156 435.264 119.834C434.999 119.512 434.806 119.164 434.684 118.792C434.57 118.42 434.512 118.072 434.512 117.75C434.512 117.127 434.623 116.604 434.845 116.182C435.067 115.752 435.347 115.405 435.683 115.14C436.02 114.875 436.385 114.685 436.779 114.57C437.173 114.449 437.542 114.388 437.885 114.388H444.75V117.181H437.907C437.764 117.181 437.649 117.199 437.563 117.234C437.484 117.263 437.423 117.306 437.381 117.363C437.345 117.413 437.323 117.471 437.316 117.535C437.309 117.592 437.305 117.65 437.305 117.707C437.312 117.822 437.334 117.911 437.37 117.976C437.406 118.04 437.449 118.087 437.499 118.115C437.556 118.144 437.617 118.162 437.681 118.169C437.753 118.169 437.821 118.169 437.885 118.169H442.215C442.931 118.169 443.539 118.298 444.041 118.556C444.542 118.813 444.947 119.139 445.255 119.533C445.562 119.92 445.784 120.342 445.921 120.801C446.064 121.259 446.135 121.685 446.135 122.079Z" fill="white"/>
<path d="M459.325 122.079C459.325 122.559 459.264 122.992 459.142 123.379C459.02 123.758 458.859 124.095 458.659 124.389C458.458 124.675 458.225 124.922 457.96 125.13C457.695 125.33 457.416 125.495 457.122 125.624C456.836 125.753 456.542 125.85 456.242 125.914C455.948 125.971 455.669 126 455.404 126H447.841V123.207H455.382C455.762 123.207 456.048 123.11 456.242 122.917C456.435 122.724 456.532 122.444 456.532 122.079C456.496 121.334 456.12 120.962 455.404 120.962H451.075C450.459 120.962 449.936 120.854 449.506 120.64C449.077 120.425 448.726 120.156 448.454 119.834C448.189 119.512 447.995 119.164 447.873 118.792C447.759 118.42 447.702 118.072 447.702 117.75C447.702 117.127 447.813 116.604 448.035 116.182C448.257 115.752 448.536 115.405 448.872 115.14C449.209 114.875 449.574 114.685 449.968 114.57C450.362 114.449 450.731 114.388 451.075 114.388H457.939V117.181H451.096C450.953 117.181 450.838 117.199 450.752 117.234C450.674 117.263 450.613 117.306 450.57 117.363C450.534 117.413 450.512 117.471 450.505 117.535C450.498 117.592 450.495 117.65 450.495 117.707C450.502 117.822 450.523 117.911 450.559 117.976C450.595 118.04 450.638 118.087 450.688 118.115C450.745 118.144 450.806 118.162 450.871 118.169C450.942 118.169 451.01 118.169 451.075 118.169H455.404C456.12 118.169 456.729 118.298 457.23 118.556C457.731 118.813 458.136 119.139 458.444 119.533C458.752 119.92 458.974 120.342 459.11 120.801C459.253 121.259 459.325 121.685 459.325 122.079Z" fill="white"/>
<path d="M464.124 112.003H461.331V109.479H464.124V112.003ZM464.124 126H461.331V114.388H464.124V126Z" fill="white"/>
<path d="M478.033 122.079C478.033 122.559 477.972 122.992 477.85 123.379C477.729 123.758 477.568 124.095 477.367 124.389C477.167 124.675 476.934 124.922 476.669 125.13C476.404 125.33 476.125 125.495 475.831 125.624C475.545 125.753 475.251 125.85 474.95 125.914C474.656 125.971 474.377 126 474.112 126H466.55V123.207H474.091C474.47 123.207 474.757 123.11 474.95 122.917C475.143 122.724 475.24 122.444 475.24 122.079C475.204 121.334 474.828 120.962 474.112 120.962H469.783C469.167 120.962 468.644 120.854 468.215 120.64C467.785 120.425 467.434 120.156 467.162 119.834C466.897 119.512 466.704 119.164 466.582 118.792C466.467 118.42 466.41 118.072 466.41 117.75C466.41 117.127 466.521 116.604 466.743 116.182C466.965 115.752 467.244 115.405 467.581 115.14C467.918 114.875 468.283 114.685 468.677 114.57C469.071 114.449 469.439 114.388 469.783 114.388H476.647V117.181H469.805C469.661 117.181 469.547 117.199 469.461 117.234C469.382 117.263 469.321 117.306 469.278 117.363C469.242 117.413 469.221 117.471 469.214 117.535C469.207 117.592 469.203 117.65 469.203 117.707C469.21 117.822 469.232 117.911 469.267 117.976C469.303 118.04 469.346 118.087 469.396 118.115C469.454 118.144 469.515 118.162 469.579 118.169C469.651 118.169 469.719 118.169 469.783 118.169H474.112C474.828 118.169 475.437 118.298 475.938 118.556C476.44 118.813 476.844 119.139 477.152 119.533C477.46 119.92 477.682 120.342 477.818 120.801C477.961 121.259 478.033 121.685 478.033 122.079Z" fill="white"/>
<path d="M490.363 117.181H485.486V126H482.661V117.181H479.03V114.388H482.661V110.596H485.486V114.388H490.363V117.181Z" fill="white"/>
<path d="M503.52 122.154C503.52 122.541 503.452 122.96 503.316 123.411C503.18 123.855 502.958 124.271 502.65 124.657C502.349 125.037 501.952 125.355 501.457 125.613C500.97 125.871 500.376 126 499.674 126H494.636C494.249 126 493.83 125.932 493.379 125.796C492.935 125.66 492.52 125.441 492.133 125.141C491.754 124.833 491.435 124.435 491.177 123.948C490.919 123.454 490.79 122.856 490.79 122.154C490.79 121.768 490.858 121.349 490.995 120.897C491.131 120.446 491.349 120.031 491.65 119.651C491.958 119.265 492.355 118.942 492.842 118.685C493.336 118.427 493.934 118.298 494.636 118.298H499.674V120.962H494.636C494.257 120.962 493.963 121.08 493.755 121.316C493.548 121.546 493.444 121.832 493.444 122.176C493.444 122.541 493.562 122.827 493.798 123.035C494.042 123.236 494.328 123.336 494.658 123.336H499.674C500.054 123.336 500.347 123.221 500.555 122.992C500.763 122.763 500.867 122.477 500.867 122.133V118.233C500.867 117.868 500.752 117.578 500.523 117.363C500.301 117.148 500.018 117.041 499.674 117.041H493.54V114.388H499.674C500.061 114.388 500.476 114.456 500.92 114.592C501.371 114.728 501.787 114.95 502.166 115.258C502.553 115.559 502.875 115.956 503.133 116.45C503.391 116.937 503.52 117.532 503.52 118.233V122.154Z" fill="white"/>
<path d="M518.772 126H515.979V119.555C515.979 119.189 515.914 118.864 515.785 118.577C515.664 118.284 515.495 118.033 515.28 117.825C515.066 117.618 514.811 117.46 514.518 117.353C514.231 117.238 513.92 117.181 513.583 117.181H508.695V126H505.902V115.773C505.902 115.58 505.938 115.401 506.01 115.236C506.082 115.064 506.182 114.918 506.311 114.796C506.44 114.667 506.59 114.567 506.762 114.495C506.934 114.424 507.116 114.388 507.31 114.388H513.605C513.956 114.388 514.324 114.427 514.711 114.506C515.105 114.585 515.492 114.714 515.871 114.893C516.258 115.064 516.623 115.286 516.967 115.559C517.318 115.824 517.626 116.149 517.891 116.536C518.163 116.916 518.378 117.356 518.535 117.857C518.693 118.359 518.772 118.924 518.772 119.555V126Z" fill="white"/>
<path d="M531.434 117.181H526.557V126H523.732V117.181H520.101V114.388H523.732V110.596H526.557V114.388H531.434V117.181Z" fill="white"/>
<path d="M544.761 118.169C544.761 118.47 544.704 118.753 544.589 119.018C544.475 119.283 544.317 119.512 544.117 119.705C543.923 119.898 543.694 120.052 543.429 120.167C543.171 120.274 542.896 120.328 542.602 120.328C542.301 120.328 542.018 120.274 541.753 120.167C541.495 120.052 541.27 119.898 541.077 119.705C540.883 119.512 540.729 119.283 540.615 119.018C540.507 118.753 540.453 118.47 540.453 118.169C540.453 117.882 540.507 117.61 540.615 117.353C540.729 117.095 540.883 116.869 541.077 116.676C541.27 116.475 541.495 116.318 541.753 116.203C542.018 116.089 542.301 116.031 542.602 116.031C542.896 116.031 543.171 116.089 543.429 116.203C543.694 116.318 543.923 116.475 544.117 116.676C544.317 116.869 544.475 117.095 544.589 117.353C544.704 117.61 544.761 117.882 544.761 118.169Z" fill="white"/>
<path d="M570.173 126H567.38V122.219H557.561V126H554.768V118.298C554.768 117.174 554.962 116.139 555.349 115.193C555.735 114.248 556.272 113.435 556.96 112.755C557.647 112.075 558.46 111.545 559.398 111.165C560.336 110.785 561.361 110.596 562.471 110.596H568.766C568.959 110.596 569.141 110.632 569.313 110.703C569.485 110.775 569.636 110.875 569.765 111.004C569.893 111.133 569.994 111.283 570.065 111.455C570.137 111.627 570.173 111.81 570.173 112.003V126ZM557.561 119.426H567.38V113.389H562.471C562.385 113.389 562.202 113.403 561.923 113.432C561.651 113.453 561.332 113.514 560.967 113.614C560.609 113.715 560.229 113.868 559.828 114.076C559.427 114.284 559.058 114.57 558.722 114.936C558.385 115.301 558.106 115.759 557.884 116.311C557.669 116.855 557.561 117.517 557.561 118.298V119.426Z" fill="white"/>
<path d="M576.24 126H573.447V110.596H576.24V126Z" fill="white"/>
<path d="M599.32 119.705H590.501V116.891H599.32V119.705ZM600.577 126H590.501C590.114 126 589.692 125.932 589.234 125.796C588.775 125.66 588.349 125.438 587.955 125.13C587.568 124.815 587.243 124.41 586.978 123.916C586.72 123.415 586.591 122.802 586.591 122.079V112.003C586.591 111.81 586.627 111.627 586.698 111.455C586.77 111.283 586.867 111.133 586.988 111.004C587.117 110.875 587.268 110.775 587.44 110.703C587.611 110.632 587.798 110.596 587.998 110.596H600.577V113.389H589.384V122.079C589.384 122.444 589.481 122.724 589.674 122.917C589.867 123.11 590.15 123.207 590.523 123.207H600.577V126Z" fill="white"/>
<path d="M615.754 126H612.961V119.555C612.961 119.189 612.896 118.864 612.767 118.577C612.646 118.284 612.477 118.033 612.263 117.825C612.048 117.618 611.793 117.46 611.5 117.353C611.213 117.238 610.902 117.181 610.565 117.181H605.678V126H602.885V115.773C602.885 115.58 602.92 115.401 602.992 115.236C603.064 115.064 603.164 114.918 603.293 114.796C603.422 114.667 603.572 114.567 603.744 114.495C603.916 114.424 604.099 114.388 604.292 114.388H610.587C610.938 114.388 611.307 114.427 611.693 114.506C612.087 114.585 612.474 114.714 612.853 114.893C613.24 115.064 613.605 115.286 613.949 115.559C614.3 115.824 614.608 116.149 614.873 116.536C615.145 116.916 615.36 117.356 615.517 117.857C615.675 118.359 615.754 118.924 615.754 119.555V126Z" fill="white"/>
<path d="M628.417 117.181H623.54V126H620.714V117.181H617.084V114.388H620.714V110.596H623.54V114.388H628.417V117.181Z" fill="white"/>
<path d="M643.163 126H640.37V118.298C640.37 117.933 640.277 117.657 640.091 117.471C639.905 117.277 639.626 117.181 639.253 117.181H634.215V114.388H639.253C639.518 114.388 639.798 114.42 640.091 114.484C640.385 114.542 640.675 114.635 640.961 114.764C641.255 114.893 641.534 115.061 641.799 115.269C642.064 115.469 642.297 115.716 642.497 116.01C642.698 116.296 642.859 116.629 642.981 117.009C643.103 117.388 643.163 117.818 643.163 118.298V126ZM633.087 126H630.294V109.479H633.087V126Z" fill="white"/>
<path d="M658.415 124.593C658.415 124.793 658.379 124.979 658.308 125.151C658.236 125.323 658.136 125.474 658.007 125.603C657.885 125.724 657.738 125.821 657.567 125.893C657.402 125.964 657.223 126 657.029 126H650.713C650.369 126 650 125.961 649.607 125.882C649.22 125.803 648.837 125.678 648.457 125.506C648.078 125.327 647.709 125.105 647.351 124.84C647 124.568 646.692 124.242 646.427 123.862C646.162 123.476 645.947 123.032 645.782 122.53C645.625 122.029 645.546 121.463 645.546 120.833V114.388H648.339V120.833C648.339 121.198 648.4 121.528 648.522 121.821C648.651 122.108 648.822 122.355 649.037 122.562C649.252 122.77 649.503 122.931 649.789 123.046C650.083 123.153 650.398 123.207 650.734 123.207H655.622V114.388H658.415V124.593Z" fill="white"/>
<path d="M672.26 122.079C672.26 122.559 672.199 122.992 672.077 123.379C671.955 123.758 671.794 124.095 671.594 124.389C671.393 124.675 671.16 124.922 670.895 125.13C670.63 125.33 670.351 125.495 670.057 125.624C669.771 125.753 669.477 125.85 669.177 125.914C668.883 125.971 668.604 126 668.339 126H660.776V123.207H668.317C668.697 123.207 668.983 123.11 669.177 122.917C669.37 122.724 669.467 122.444 669.467 122.079C669.431 121.334 669.055 120.962 668.339 120.962H664.01C663.394 120.962 662.871 120.854 662.441 120.64C662.012 120.425 661.661 120.156 661.389 119.834C661.124 119.512 660.93 119.164 660.808 118.792C660.694 118.42 660.637 118.072 660.637 117.75C660.637 117.127 660.748 116.604 660.97 116.182C661.192 115.752 661.471 115.405 661.807 115.14C662.144 114.875 662.509 114.685 662.903 114.57C663.297 114.449 663.666 114.388 664.01 114.388H670.874V117.181H664.031C663.888 117.181 663.773 117.199 663.687 117.234C663.609 117.263 663.548 117.306 663.505 117.363C663.469 117.413 663.447 117.471 663.44 117.535C663.433 117.592 663.43 117.65 663.43 117.707C663.437 117.822 663.458 117.911 663.494 117.976C663.53 118.04 663.573 118.087 663.623 118.115C663.68 118.144 663.741 118.162 663.806 118.169C663.877 118.169 663.945 118.169 664.01 118.169H668.339C669.055 118.169 669.664 118.298 670.165 118.556C670.666 118.813 671.071 119.139 671.379 119.533C671.687 119.92 671.909 120.342 672.045 120.801C672.188 121.259 672.26 121.685 672.26 122.079Z" fill="white"/>
<path d="M677.059 112.003H674.266V109.479H677.059V112.003ZM677.059 126H674.266V114.388H677.059V126Z" fill="white"/>
<path d="M691.731 122.154C691.731 122.541 691.663 122.96 691.527 123.411C691.391 123.855 691.169 124.271 690.861 124.657C690.56 125.037 690.162 125.355 689.668 125.613C689.181 125.871 688.587 126 687.885 126H682.847C682.46 126 682.041 125.932 681.59 125.796C681.146 125.66 680.731 125.441 680.344 125.141C679.965 124.833 679.646 124.435 679.388 123.948C679.13 123.454 679.001 122.856 679.001 122.154C679.001 121.768 679.069 121.349 679.205 120.897C679.342 120.446 679.56 120.031 679.861 119.651C680.169 119.265 680.566 118.942 681.053 118.685C681.547 118.427 682.145 118.298 682.847 118.298H687.885V120.962H682.847C682.467 120.962 682.174 121.08 681.966 121.316C681.759 121.546 681.655 121.832 681.655 122.176C681.655 122.541 681.773 122.827 682.009 123.035C682.253 123.236 682.539 123.336 682.869 123.336H687.885C688.265 123.336 688.558 123.221 688.766 122.992C688.974 122.763 689.078 122.477 689.078 122.133V118.233C689.078 117.868 688.963 117.578 688.734 117.363C688.512 117.148 688.229 117.041 687.885 117.041H681.751V114.388H687.885C688.272 114.388 688.687 114.456 689.131 114.592C689.582 114.728 689.998 114.95 690.377 115.258C690.764 115.559 691.086 115.956 691.344 116.45C691.602 116.937 691.731 117.532 691.731 118.233V122.154Z" fill="white"/>
<path d="M705.339 122.079C705.339 122.559 705.278 122.992 705.156 123.379C705.035 123.758 704.873 124.095 704.673 124.389C704.472 124.675 704.24 124.922 703.975 125.13C703.71 125.33 703.43 125.495 703.137 125.624C702.85 125.753 702.557 125.85 702.256 125.914C701.962 125.971 701.683 126 701.418 126H693.856V123.207H701.397C701.776 123.207 702.063 123.11 702.256 122.917C702.449 122.724 702.546 122.444 702.546 122.079C702.51 121.334 702.134 120.962 701.418 120.962H697.089C696.473 120.962 695.95 120.854 695.521 120.64C695.091 120.425 694.74 120.156 694.468 119.834C694.203 119.512 694.01 119.164 693.888 118.792C693.773 118.42 693.716 118.072 693.716 117.75C693.716 117.127 693.827 116.604 694.049 116.182C694.271 115.752 694.55 115.405 694.887 115.14C695.223 114.875 695.589 114.685 695.983 114.57C696.376 114.449 696.745 114.388 697.089 114.388H703.953V117.181H697.11C696.967 117.181 696.853 117.199 696.767 117.234C696.688 117.263 696.627 117.306 696.584 117.363C696.548 117.413 696.527 117.471 696.52 117.535C696.512 117.592 696.509 117.65 696.509 117.707C696.516 117.822 696.538 117.911 696.573 117.976C696.609 118.04 696.652 118.087 696.702 118.115C696.76 118.144 696.82 118.162 696.885 118.169C696.957 118.169 697.025 118.169 697.089 118.169H701.418C702.134 118.169 702.743 118.298 703.244 118.556C703.746 118.813 704.15 119.139 704.458 119.533C704.766 119.92 704.988 120.342 705.124 120.801C705.267 121.259 705.339 121.685 705.339 122.079Z" fill="white"/>
<path d="M717.669 117.181H712.792V126H709.967V117.181H706.336V114.388H709.967V110.596H712.792V114.388H717.669V117.181Z" fill="white"/>
</svg>
