<svg width="488" height="488" viewBox="0 0 488 488" fill="none" xmlns="http://www.w3.org/2000/svg">
<path d="M146.412 382.842C146.412 385.821 146.026 388.51 145.252 390.908C144.517 393.268 143.531 395.357 142.293 397.175C141.055 398.993 139.604 400.54 137.941 401.817C136.277 403.093 134.556 404.138 132.776 404.95C130.997 405.763 129.179 406.362 127.322 406.749C125.504 407.136 123.782 407.329 122.158 407.329H63.9575V392.243H122.158C125.059 392.243 127.303 391.392 128.889 389.689C130.513 387.987 131.326 385.705 131.326 382.842C131.326 381.45 131.113 380.173 130.687 379.013C130.262 377.852 129.643 376.846 128.831 375.995C128.057 375.144 127.09 374.487 125.929 374.022C124.807 373.558 123.55 373.326 122.158 373.326H87.4581C85.021 373.326 82.3905 372.901 79.5665 372.05C76.7426 371.16 74.1121 369.748 71.675 367.814C69.2766 365.879 67.265 363.346 65.6403 360.212C64.0543 357.079 63.2612 353.249 63.2612 348.723C63.2612 344.197 64.0543 340.387 65.6403 337.292C67.265 334.159 69.2766 331.625 71.675 329.691C74.1121 327.718 76.7426 326.306 79.5665 325.455C82.3905 324.565 85.021 324.12 87.4581 324.12H138.811V339.207H87.4581C84.5955 339.207 82.3518 340.077 80.7271 341.818C79.141 343.559 78.348 345.861 78.348 348.723C78.348 351.624 79.141 353.926 80.7271 355.628C82.3518 357.292 84.5955 358.123 87.4581 358.123H122.274C123.898 358.162 125.62 358.394 127.438 358.82C129.256 359.207 131.055 359.825 132.834 360.676C134.653 361.528 136.374 362.611 137.999 363.926C139.623 365.203 141.055 366.75 142.293 368.568C143.569 370.386 144.575 372.475 145.31 374.835C146.045 377.195 146.412 379.864 146.412 382.842Z" fill="white"/>
<path d="M284.94 245.835C284.94 249.703 284.418 253.359 283.374 256.802C282.368 260.206 280.917 263.301 279.022 266.086C277.165 268.871 274.902 271.308 272.233 273.397C269.602 275.486 266.662 277.13 263.413 278.329L281.053 292.314H259.177L244.67 280.65H229.816C224.825 280.65 220.203 279.799 215.947 278.097C211.692 276.357 208.017 273.939 204.922 270.844C201.828 267.749 199.391 264.074 197.611 259.819C195.87 255.564 195 250.902 195 245.835V229.936C195 224.907 195.87 220.265 197.611 216.009C199.391 211.716 201.828 208.041 204.922 204.985C208.017 201.89 211.692 199.472 215.947 197.731C220.203 195.991 224.825 195.12 229.816 195.12H250.241C255.231 195.12 259.834 195.991 264.051 197.731C268.306 199.472 271.981 201.89 275.076 204.985C278.171 208.041 280.588 211.716 282.329 216.009C284.07 220.265 284.94 224.907 284.94 229.936V245.835ZM269.854 229.936C269.854 226.957 269.37 224.269 268.403 221.87C267.474 219.433 266.14 217.363 264.399 215.661C262.697 213.921 260.627 212.586 258.19 211.658C255.792 210.69 253.142 210.207 250.241 210.207H229.816C226.876 210.207 224.187 210.69 221.75 211.658C219.352 212.586 217.282 213.921 215.541 215.661C213.8 217.363 212.446 219.433 211.479 221.87C210.551 224.269 210.087 226.957 210.087 229.936V245.835C210.087 248.814 210.551 251.521 211.479 253.958C212.446 256.357 213.8 258.426 215.541 260.167C217.282 261.869 219.352 263.204 221.75 264.171C224.187 265.099 226.876 265.564 229.816 265.564H250.125C253.065 265.564 255.734 265.099 258.132 264.171C260.569 263.204 262.658 261.869 264.399 260.167C266.14 258.426 267.474 256.357 268.403 253.958C269.37 251.521 269.854 248.814 269.854 245.835V229.936Z" fill="white"/>
<path d="M428.209 352.093C428.209 355.536 427.764 358.611 426.875 361.319C426.024 364.027 424.882 366.425 423.451 368.514C422.02 370.564 420.337 372.324 418.403 373.794C416.507 375.264 414.534 376.483 412.484 377.45C410.434 378.378 408.345 379.055 406.217 379.481C404.128 379.907 402.156 380.119 400.299 380.119H394.206V407.45H379.003V380.119H372.969C371.112 380.119 369.119 379.907 366.992 379.481C364.903 379.055 362.814 378.378 360.725 377.45C358.675 376.483 356.702 375.264 354.806 373.794C352.911 372.324 351.228 370.564 349.758 368.514C348.327 366.425 347.166 364.027 346.277 361.319C345.426 358.572 345 355.497 345 352.093V324.24H360.087V352.093C360.087 354.066 360.396 355.845 361.015 357.431C361.634 358.978 362.505 360.313 363.626 361.435C364.748 362.557 366.102 363.427 367.688 364.046C369.313 364.626 371.112 364.916 373.085 364.916H400.299C401.73 364.684 403.2 364.394 404.709 364.046C406.217 363.659 407.591 363.021 408.829 362.131C410.066 361.241 411.092 360.004 411.904 358.418C412.716 356.832 413.123 354.723 413.123 352.093V324.24H428.209V352.093Z" fill="white"/>
<path d="M413.807 130.326H366.11V115.123H413.807V130.326ZM420.538 96.2069H360.075V164.329H344.988V88.7215C344.988 87.6771 345.182 86.6906 345.569 85.7622C345.955 84.8338 346.478 84.0214 347.135 83.3251C347.832 82.6288 348.644 82.0872 349.572 81.7004C350.501 81.3135 351.507 81.1201 352.59 81.1201H420.538V96.2069Z" fill="white"/>
<path d="M141.643 96.0868H108.394V164.209H93.3069V96.0868H60V81H141.643V96.0868Z" fill="white"/>
<rect x="7.5" y="7.5" width="473" height="473" rx="45.5" stroke="white" stroke-width="15"/>
</svg>
